<svg width="32" height="32" viewBox="0 0 32 32" fill="none" xmlns="http://www.w3.org/2000/svg">
  <!-- Fondo circular negro -->
  <circle cx="16" cy="16" r="16" fill="#000000"/>
  
  <!-- Letra R estilizada -->
  <path d="M11 8V24H13V16H15L18 24H20L17 16C18.5 15.5 20 14.5 20 12C20 9.5 18 8 15 8H11ZM13 10H15C16.7 10 18 10.5 18 12C18 13.5 16.7 14 15 14H13V10Z" fill="#ffffff"/>
  
  <!-- Letra C estilizada -->
  <path d="M21 11C22 10 23.5 9 25 10.5L24 12.5C23 11.5 22 12 21.5 12.5C21 13 20 15 20 16C20 17 21 19 21.5 19.5C22 20 23 20.5 24 19.5L25 21.5C23.5 23 22 22 21 21C20 20 18 18 18 16C18 14 20 12 21 11Z" fill="#ffffff"/>
</svg>